<svg xmlns="http://www.w3.org/2000/svg" viewBox="0 0 32 32" stroke="currentColor" aria-hidden="true">
    <g class="nc-icon-wrapper" stroke-linecap="round" stroke-linejoin="round" stroke-width="2">
        <path d="M23.815,19A26.788,26.788,0,0,0,24,16c0-8.284-3.582-15-8-15S8,7.716,8,16s3.582,15,8,15c2.1,0,4-1.525,5.426-4" stroke-miterlimit="10"/>
        <path d="M13,8.185A26.788,26.788,0,0,1,16,8c8.284,0,15,3.582,15,8s-6.716,8-15,8S1,20.418,1,16c0-2.1,1.525-4,4-5.426" stroke-miterlimit="10"/>
        <circle cx="16" cy="16" r="3" fill="none" stroke-miterlimit="10" data-color="color-2"/>
    </g>
</svg>