<svg width="11.2" height="11.2" viewBox="0 0 12 12" fill="none" xmlns="http://www.w3.org/2000/svg" aria-hidden="true">
<path fill-rule="evenodd" clip-rule="evenodd" d="M2.80168 1.66995L4.636 3.50426C4.94842 3.81668 4.94842 4.32321 4.636 4.63563C4.32358 4.94805 3.81705 4.94805 3.50463 4.63563L1.67031 2.80132V4.06995C1.67031 4.51177 1.31214 4.86995 0.870313 4.86995C0.428485 4.86995 0.0703125 4.51177 0.0703125 4.06995V0.870085C0.0703125 0.665347 0.148417 0.460471 0.304627 0.304261C0.381328 0.22756 0.469729 0.169689 0.564086 0.130649C0.658411 0.0915347 0.761841 0.0699463 0.870313 0.0699463H4.07031C4.51214 0.0699463 4.87031 0.428118 4.87031 0.869946C4.87031 1.31177 4.51214 1.66995 4.07031 1.66995H2.80168ZM7.27031 1.66995C6.82849 1.66995 6.47031 1.31177 6.47031 0.869946C6.47031 0.428118 6.82849 0.0699463 7.27031 0.0699463H10.4702C10.5786 0.0699463 10.6822 0.0915348 10.7765 0.130649C10.8702 0.169401 10.958 0.226707 11.0343 0.302567L11.0377 0.30596C11.1136 0.382266 11.1709 0.470059 11.2096 0.563719C11.2498 0.660778 11.27 0.764139 11.2703 0.867547L11.2703 0.869946V4.06995C11.2703 4.51177 10.9121 4.86995 10.4703 4.86995C10.0285 4.86995 9.67031 4.51177 9.67031 4.06995V2.80132L7.836 4.63563C7.52358 4.94805 7.01705 4.94805 6.70463 4.63563C6.39221 4.32321 6.39221 3.81668 6.70463 3.50426L8.53894 1.66995H7.27031ZM0.0703125 7.26995C0.0703125 6.82812 0.428485 6.46995 0.870313 6.46995C1.31214 6.46995 1.67031 6.82812 1.67031 7.26995V8.53858L3.50463 6.70426C3.81705 6.39184 4.32358 6.39184 4.636 6.70426C4.94842 7.01668 4.94842 7.52321 4.636 7.83563L2.80168 9.66995H4.07031C4.51214 9.66995 4.87031 10.0281 4.87031 10.4699C4.87031 10.9118 4.51214 11.2699 4.07031 11.2699H0.870867L0.867913 11.2699C0.760315 11.2696 0.657715 11.2481 0.564086 11.2092C0.467059 11.169 0.379665 11.1102 0.306326 11.0373L0.302933 11.0339C0.227073 10.9576 0.169767 10.8698 0.131015 10.7762C0.0919009 10.6818 0.0703125 10.5784 0.0703125 10.4699V7.26995Z" fill="#84BFD2"/>
<path d="M7.27031 11.2699C6.82849 11.2699 6.47031 10.9118 6.47031 10.4699C6.47031 10.0281 6.82849 9.66995 7.27031 9.66995H8.53894L6.70463 7.83563C6.39221 7.52321 6.39221 7.01668 6.70463 6.70426C7.01705 6.39184 7.52358 6.39184 7.836 6.70426L9.67031 8.53858V7.26995C9.67031 6.82812 10.0285 6.46995 10.4703 6.46995C10.9121 6.46995 11.2703 6.82812 11.2703 7.26995V10.4694L11.2703 10.4723C11.27 10.5799 11.2484 10.6825 11.2096 10.7762C11.1694 10.8732 11.1106 10.9606 11.0377 11.0339L11.0343 11.0373C10.958 11.1132 10.8702 11.1705 10.7765 11.2092C10.6822 11.2484 10.5788 11.2699 10.4703 11.2699H7.27031Z" fill="#84BFD2"/>
</svg>
