<svg xmlns="http://www.w3.org/2000/svg" viewBox="0 0 102 75" fill="none" fill-rule="evenodd" class="simple-svg" style="width: 102px;height: 75px;fill: rgb(81, 81, 80);" aria-hidden="true">
    <g id="v2" stroke="none" stroke-width="1">
        <path d="M59.2215358,45.2569602 C63.1084097,41.2008839 67.6782493,38.0328245 72.2471758,34.8536878 C74.8402514,33.0490385 77.4552381,31.2711588 79.6420044,28.9412689 C82.5537373,25.8369027 82.2935156,22.3392986 80.4938846,19.9004835 C78.6294283,17.3748976 75.9222211,16.654884 72.953879,16.9936596 C69.463272,17.3915133 66.978849,19.5063222 64.9016485,22.1916035 C64.2999476,22.9716182 63.7849832,23.8199418 63.2051935,24.673804 C58.8471824,21.7245178 54.4773026,18.7660006 50.0727273,15.7844061 C51.1081327,13.5486718 52.4439319,11.5843272 54.006168,9.77875476 C59.3101035,3.64571638 66.011924,0.415809517 74.0468067,0.0401101461 C80.3277096,-0.253433834 86.233346,1.04166744 91.4834118,4.67127414 C96.8046951,8.34888172 99.6506871,13.5292868 100.251477,20.0001777 C101.013877,28.2120244 98.0720139,34.93492 92.2622482,40.5408717 C88.4219386,44.2452489 83.9379272,47.0385323 79.5141777,49.9250478 C77.1228883,51.4860004 74.6941612,53.0035674 72.7055285,55.1036069 C71.6646465,56.2030122 70.816419,57.4150348 70.6913294,59.089528 C80.9339763,59.089528 91.1291458,59.089528 101.390969,59.089528 C101.390969,64.241317 101.390969,69.3220281 101.390969,74.463663 C84.7331982,74.463663 68.0589923,74.463663 51.3163086,74.463663 C49.061975,63.3533004 51.2962213,53.5269618 59.2215358,45.2569602 Z" id="v"></path>
        <path d="M0,40.8950316 C0,36.8703407 0,32.9767289 0,28.9511148 C0.280309029,28.9511148 0.543267787,28.9511148 0.806229033,28.9511148 C6.02433632,28.9511148 18.1369211,28.9114217 18.2254863,29.1634266 C20.321861,35.051845 22.6839314,41.7267397 24.774827,47.6170043 C26.2868461,51.8789305 27.8006915,56.1390105 29.3154501,60.4000137 C29.3884939,60.6049406 29.481625,60.8024828 29.6441498,61.1901826 C36.0218365,46.9606841 42.3283057,32.8945737 48.6676441,18.75 C52.8366509,21.628208 56.9262241,24.4519533 61.0532325,27.3006223 C59.9676101,29.6166658 58.9057277,31.89117 57.8392794,34.1629051 C51.656071,47.3336143 45.4673861,60.5034002 39.2978753,73.6805711 C39.0394824,74.2335047 38.7628261,74.4670474 38.1227745,74.463355 C32.5266637,74.433816 26.9296372,74.4375084 21.3335239,74.4605859 C20.7592132,74.4624321 20.5172549,74.295352 20.3282507,73.7378029 C16.6824244,63.0077551 13.007379,52.2897075 9.36155024,41.5596597 C9.17711434,41.0168801 8.90867655,40.8793391 8.38275654,40.8839546 C5.91203107,40.9070319 3.44130311,40.8950316 0.970577635,40.8950316 C0.67292331,40.8950316 0.374353325,40.8950316 0,40.8950316" id="2"></path>
    </g>
</svg>