<svg xmlns="http://www.w3.org/2000/svg" width="366" height="96" viewBox="0 0 366 96" aria-hidden="true">
  <g fill="#515251" fill-rule="evenodd">
    <path d="M86.262,66.233 C87.737,71.728 87.872,76.288 88.008,76.288 L88.274,76.288 C88.274,76.288 88.676,71.592 89.885,66.233 L105.568,0.41 L123.396,0.41 L98.865,95.59 L78.892,95.59 L64.276,39.285 C62.67,33.119 61.862,26.817 61.862,26.817 L61.597,26.817 C61.597,26.817 60.794,33.119 59.184,39.285 L44.572,95.59 L24.598,95.59 L0.735,0.41 L18.563,0.41 L33.579,66.233 C34.784,71.592 35.186,76.288 35.186,76.288 L35.456,76.288 C35.591,76.288 35.722,71.728 37.197,66.233 L54.357,0.41 L69.373,0.41 L86.262,66.233"/>
    <polyline points="141.498 .41 198.471 .41 198.471 15.287 158.788 15.287 158.788 40.223 190.829 40.223 190.829 55.104 158.788 55.104 158.788 80.709 200.618 80.709 200.618 95.59 141.498 95.59 141.498 .41"/>
    <polyline points="221.269 .41 238.559 .41 238.559 80.709 279.716 80.709 279.716 95.59 221.269 95.59 221.269 .41"/>
    <polyline points="298.892 .41 316.182 .41 316.182 80.709 357.34 80.709 357.34 95.59 298.892 95.59 298.892 .41"/>
    <polyline points="352.482 .89 349.351 .89 349.351 .41 356.127 .41 356.127 .89 352.997 .89 352.997 8.806 352.482 8.806 352.482 .89"/>
    <path d="M357.917,0.41 L358.421,0.41 L360.868,5.687 C361.06,6.095 361.275,6.635 361.275,6.635 L361.3,6.635 C361.3,6.635 361.516,6.095 361.707,5.687 L364.154,0.41 L364.658,0.41 L365.329,8.806 L364.814,8.806 L364.298,2.401 C364.262,1.994 364.262,1.286 364.262,1.286 L364.238,1.286 C364.238,1.286 363.998,1.994 363.807,2.401 L361.552,7.186 L361.023,7.186 L358.781,2.401 C358.602,2.005 358.337,1.262 358.337,1.262 L358.314,1.262 C358.314,1.262 358.314,1.994 358.277,2.401 L357.762,8.806 L357.246,8.806 L357.917,0.41"/>
  </g>
</svg>
